<svg xmlns="http://www.w3.org/2000/svg" fill-rule="evenodd" stroke-linejoin="round" stroke-miterlimit="2" clip-rule="evenodd" viewBox="0 0 32 32" id="play">
  <circle cx="15.999" cy="16" r="14" fill="#979fef"></circle>
  <path fill="#5962bb" d="M16,2l0,28c7.726,-0 13.999,-6.273 13.999,-14c0,-7.727 -6.273,-14 -13.999,-14Z"></path>
  <path fill="#ff8fb8" d="M22.447,16.882c0.339,-0.169 0.553,-0.515 0.553,-0.894c0,-0.379 -0.214,-0.725 -0.553,-0.895l-10,-5c-0.31,-0.155 -0.678,-0.138 -0.973,0.044c-0.295,0.182 -0.474,0.504 -0.474,0.851l0,10c0,0.346 0.179,0.668 0.474,0.85c0.295,0.183 0.663,0.199 0.973,0.044l10,-5Z"></path>
  <path fill="#e84d86" d="M16,11.87l0,8.236l6.447,-3.224c0.339,-0.169 0.553,-0.515 0.553,-0.894c0,-0.379 -0.214,-0.725 -0.553,-0.895l-6.447,-3.223Z"></path>
</svg>
