<?xml version="1.0" encoding="utf-8"?>
<!-- Generator: Adobe Illustrator 27.5.0, SVG Export Plug-In . SVG Version: 6.00 Build 0)  -->
<svg version="1.1" xmlns="http://www.w3.org/2000/svg" xmlns:xlink="http://www.w3.org/1999/xlink" x="0px" y="0px"
	 viewBox="0 0 500 500" style="enable-background:new 0 0 500 500;" xml:space="preserve">
<g id="Background_Complete">
	<g>
		<rect x="416.779" y="398.494" style="fill:#EBEBEB;" width="33.122" height="0.25"/>
		<rect x="322.527" y="401.208" style="fill:#EBEBEB;" width="8.693" height="0.25"/>
		<rect x="396.586" y="389.208" style="fill:#EBEBEB;" width="19.192" height="0.25"/>
		<rect x="52.459" y="390.888" style="fill:#EBEBEB;" width="43.193" height="0.25"/>
		<rect x="104.556" y="390.888" style="fill:#EBEBEB;" width="6.333" height="0.25"/>
		<rect x="131.471" y="395.111" style="fill:#EBEBEB;" width="93.676" height="0.25"/>
		<path style="fill:#EBEBEB;" d="M237.014,337.8H43.915c-3.147,0-5.708-2.561-5.708-5.708V60.66c0-3.147,2.561-5.708,5.708-5.708
			h193.099c3.146,0,5.707,2.561,5.707,5.708v271.432C242.721,335.239,240.16,337.8,237.014,337.8z M43.915,55.203
			c-3.01,0-5.458,2.448-5.458,5.458v271.432c0,3.01,2.448,5.458,5.458,5.458h193.099c3.009,0,5.457-2.448,5.457-5.458V60.66
			c0-3.009-2.448-5.458-5.457-5.458H43.915z"/>
		<path style="fill:#EBEBEB;" d="M453.31,337.8H260.212c-3.147,0-5.707-2.561-5.707-5.708V60.66c0-3.147,2.561-5.708,5.707-5.708
			H453.31c3.148,0,5.708,2.561,5.708,5.708v271.432C459.019,335.239,456.458,337.8,453.31,337.8z M260.212,55.203
			c-3.009,0-5.457,2.448-5.457,5.458v271.432c0,3.01,2.448,5.458,5.457,5.458H453.31c3.01,0,5.458-2.448,5.458-5.458V60.66
			c0-3.009-2.448-5.458-5.458-5.458H260.212z"/>
		<rect y="382.398" style="fill:#EBEBEB;" width="500" height="0.25"/>
	</g>
	<g>
		<g>
			<rect x="251.506" y="290.464" style="fill:#E6E6E6;" width="75.807" height="81.595"/>
			<rect x="329.358" y="284.394" style="fill:#E6E6E6;" width="9.529" height="98.253"/>
			<rect x="263.573" y="296.887" style="fill:#FAFAFA;" width="6.211" height="30.492"/>
			<rect x="289.327" y="296.887" style="fill:#F5F5F5;" width="6.211" height="30.492"/>
			<rect x="269.785" y="299.03" style="fill:#F5F5F5;" width="6.212" height="28.349"/>
			<rect x="283.116" y="299.03" style="fill:#FAFAFA;" width="6.211" height="28.349"/>
			<rect x="279.102" y="296.887" style="fill:#EBEBEB;" width="4.014" height="30.492"/>
			<rect x="275.996" y="299.03" style="fill:#FAFAFA;" width="3.106" height="28.349"/>
			<rect x="295.539" y="296.887" style="fill:#EBEBEB;" width="6.211" height="30.492"/>
			<rect x="301.75" y="299.03" style="fill:#E6E6E6;" width="6.211" height="28.349"/>
			<rect x="315.081" y="299.03" style="fill:#E6E6E6;" width="6.211" height="28.349"/>
			<rect x="311.067" y="296.887" style="fill:#FAFAFA;" width="4.014" height="30.492"/>
			<rect x="307.961" y="299.03" style="fill:#EBEBEB;" width="3.106" height="28.349"/>
			<rect x="321.292" y="297.609" style="fill:#FAFAFA;" width="3.106" height="29.77"/>
			
				<rect x="318.186" y="337.755" transform="matrix(-1 -1.224647e-16 1.224647e-16 -1 642.5842 706.0019)" style="fill:#FAFAFA;" width="6.211" height="30.492"/>
			
				<rect x="292.433" y="337.755" transform="matrix(-1 -1.224647e-16 1.224647e-16 -1 591.0769 706.0019)" style="fill:#FAFAFA;" width="6.211" height="30.492"/>
			
				<rect x="311.975" y="339.898" transform="matrix(-1 -1.224647e-16 1.224647e-16 -1 630.1615 708.1447)" style="fill:#F0F0F0;" width="6.211" height="28.349"/>
			
				<rect x="298.644" y="339.898" transform="matrix(-1 -1.224647e-16 1.224647e-16 -1 603.4996 708.1447)" style="fill:#EBEBEB;" width="6.211" height="28.349"/>
			
				<rect x="304.855" y="337.755" transform="matrix(-1 -1.224647e-16 1.224647e-16 -1 613.7249 706.0019)" style="fill:#FAFAFA;" width="4.014" height="30.492"/>
			
				<rect x="308.869" y="339.898" transform="matrix(-1 -1.224647e-16 1.224647e-16 -1 620.8445 708.1447)" style="fill:#F5F5F5;" width="3.106" height="28.349"/>
			
				<rect x="286.221" y="337.755" transform="matrix(-1 -1.224647e-16 1.224647e-16 -1 578.6542 706.0019)" style="fill:#EBEBEB;" width="6.211" height="30.492"/>
			
				<rect x="280.01" y="339.898" transform="matrix(-1 -1.224647e-16 1.224647e-16 -1 566.2314 708.1447)" style="fill:#F5F5F5;" width="6.211" height="28.349"/>
			
				<rect x="266.679" y="339.898" transform="matrix(-1 -1.224647e-16 1.224647e-16 -1 539.5696 708.1447)" style="fill:#E6E6E6;" width="6.211" height="28.349"/>
			
				<rect x="272.891" y="337.755" transform="matrix(-1 -1.224647e-16 1.224647e-16 -1 549.7948 706.0019)" style="fill:#FAFAFA;" width="4.014" height="30.492"/>
			
				<rect x="259.56" y="337.755" transform="matrix(-1 -1.224647e-16 1.224647e-16 -1 523.133 706.0019)" style="fill:#FAFAFA;" width="4.014" height="30.492"/>
			
				<rect x="276.904" y="339.898" transform="matrix(-1 -1.224647e-16 1.224647e-16 -1 556.9143 708.1447)" style="fill:#EBEBEB;" width="3.106" height="28.349"/>
			
				<rect x="263.573" y="338.477" transform="matrix(-1 -1.224647e-16 1.224647e-16 -1 530.2525 706.7241)" style="fill:#F0F0F0;" width="3.106" height="29.77"/>
			<path style="fill:#F0F0F0;" d="M326.931,284.394h-2.541h-75.284v92.747h75.284v5.506h5.082v-98.253H326.931z M324.39,368.247
				h-70.491v-35.752h70.491V368.247z M324.39,327.413h-70.491v-34.125h70.491V327.413z"/>
			
				<rect x="175.576" y="290.464" transform="matrix(-1 -1.224647e-16 1.224647e-16 -1 426.9579 662.5223)" style="fill:#E6E6E6;" width="75.807" height="81.595"/>
			
				<rect x="178.49" y="376.143" transform="matrix(-1 -1.224647e-16 1.224647e-16 -1 366.5098 758.7889)" style="fill:#E6E6E6;" width="9.529" height="6.503"/>
			
				<rect x="242.617" y="296.887" transform="matrix(-1 -1.224647e-16 1.224647e-16 -1 491.4455 624.2659)" style="fill:#FAFAFA;" width="6.211" height="30.492"/>
			
				<rect x="216.863" y="296.887" transform="matrix(-1 -1.224647e-16 1.224647e-16 -1 439.938 624.2659)" style="fill:#F5F5F5;" width="6.211" height="30.492"/>
			
				<rect x="236.406" y="299.03" transform="matrix(-1 -1.224647e-16 1.224647e-16 -1 479.0227 626.4088)" style="fill:#F5F5F5;" width="6.212" height="28.349"/>
			
				<rect x="223.075" y="299.03" transform="matrix(-1 -1.224647e-16 1.224647e-16 -1 452.3608 626.4088)" style="fill:#FAFAFA;" width="6.211" height="28.349"/>
			
				<rect x="229.286" y="296.887" transform="matrix(-1 -1.224647e-16 1.224647e-16 -1 462.586 624.2659)" style="fill:#EBEBEB;" width="4.014" height="30.492"/>
			
				<rect x="233.3" y="299.03" transform="matrix(-1 -1.224647e-16 1.224647e-16 -1 469.7055 626.4088)" style="fill:#FAFAFA;" width="3.106" height="28.349"/>
			
				<rect x="214.747" y="296.887" transform="matrix(-1 -1.224647e-16 1.224647e-16 -1 435.7049 624.2659)" style="fill:#EBEBEB;" width="6.211" height="30.492"/>
			
				<rect x="208.535" y="299.03" transform="matrix(-1 -1.224647e-16 1.224647e-16 -1 423.2822 626.4088)" style="fill:#E6E6E6;" width="6.211" height="28.349"/>
			
				<rect x="195.204" y="299.03" transform="matrix(-1 -1.224647e-16 1.224647e-16 -1 396.6204 626.4088)" style="fill:#E6E6E6;" width="6.211" height="28.349"/>
			
				<rect x="201.416" y="296.887" transform="matrix(-1 -1.224647e-16 1.224647e-16 -1 406.8457 624.2659)" style="fill:#FAFAFA;" width="4.014" height="30.492"/>
			
				<rect x="205.43" y="299.03" transform="matrix(-1 -1.224647e-16 1.224647e-16 -1 413.9652 626.4088)" style="fill:#EBEBEB;" width="3.106" height="28.349"/>
			
				<rect x="192.099" y="297.609" transform="matrix(-1 -1.224647e-16 1.224647e-16 -1 387.3033 624.9882)" style="fill:#F5F5F5;" width="3.106" height="29.77"/>
			<rect x="189.181" y="337.755" style="fill:#FAFAFA;" width="6.211" height="30.492"/>
			<rect x="214.935" y="337.755" style="fill:#FAFAFA;" width="6.211" height="30.492"/>
			<rect x="195.393" y="339.898" style="fill:#F5F5F5;" width="6.211" height="28.349"/>
			<rect x="208.724" y="339.898" style="fill:#EBEBEB;" width="6.211" height="28.349"/>
			<rect x="204.71" y="337.755" style="fill:#FAFAFA;" width="4.014" height="30.492"/>
			<rect x="201.604" y="339.898" style="fill:#F5F5F5;" width="3.106" height="28.349"/>
			<rect x="217.051" y="337.755" style="fill:#EBEBEB;" width="6.211" height="30.492"/>
			<rect x="223.263" y="339.898" style="fill:#F5F5F5;" width="6.211" height="28.349"/>
			<rect x="236.594" y="339.898" style="fill:#E6E6E6;" width="6.211" height="28.349"/>
			<rect x="232.58" y="337.755" style="fill:#FAFAFA;" width="4.014" height="30.492"/>
			<rect x="245.092" y="337.755" style="fill:#FAFAFA;" width="4.014" height="30.492"/>
			<rect x="229.474" y="339.898" style="fill:#EBEBEB;" width="3.106" height="28.349"/>
			<rect x="242.805" y="338.477" style="fill:#EBEBEB;" width="3.106" height="29.77"/>
			<path style="fill:#F0F0F0;" d="M173.416,284.394v98.253h5.082v-5.506h75.284v-92.747h-75.284h-2.541H173.416z M178.498,332.495
				h70.492v35.752h-70.492V332.495z M178.498,293.287h70.492v34.125h-70.492V293.287z"/>
		</g>
		<g>
			<rect x="403.784" y="186.524" style="fill:#EBEBEB;" width="6.18" height="196.122"/>
			<polygon style="fill:#EBEBEB;" points="388.971,382.646 384.534,382.646 392.278,191.524 396.715,191.524 			"/>
			<polygon style="fill:#EBEBEB;" points="426.526,382.646 430.963,382.646 423.22,191.524 418.783,191.524 			"/>
			<g>
				<polygon style="fill:#F0F0F0;" points="436.104,276.917 378.181,276.917 383.758,197.165 441.681,197.165 				"/>
				<polygon style="fill:#E6E6E6;" points="383.205,205.071 391.664,197.165 383.758,197.165 				"/>
				<polygon style="fill:#E6E6E6;" points="433.775,197.165 441.128,205.071 441.681,197.165 				"/>
				<polygon style="fill:#E6E6E6;" points="378.181,276.917 386.087,276.917 378.734,269.011 				"/>
				<polygon style="fill:#E6E6E6;" points="436.657,269.011 428.198,276.917 436.104,276.917 				"/>
				<path style="fill:#F5F5F5;" d="M399.987,257.978c0,0-16.932-17.409-10.933-23.48
					C395.053,228.427,399.987,257.978,399.987,257.978z"/>
				<path style="fill:#FAFAFA;" d="M404.202,250.13c0,0-3.294-38.703,5.636-37.703C418.769,213.427,404.202,250.13,404.202,250.13z"
					/>
				<path style="fill:#FAFAFA;" d="M410.255,254.335c0,0,10.704-21.346,19.529-17.294S410.255,254.335,410.255,254.335z"/>
			</g>
			<rect x="370.486" y="275.983" style="fill:#E6E6E6;" width="74.034" height="10.513"/>
			<rect x="384.634" y="311.487" style="fill:#F0F0F0;" width="46.064" height="5.013"/>
		</g>
		<g>
			<path style="fill:#EBEBEB;" d="M94.378,350.145c0,0-7.278-34.396,5.977-53.027c13.255-18.632-11.98-0.215-14.883,17.226
				c0,0-4.35-31.184,8.508-53.125c12.858-21.941-11.199-3.925-13.243,18.681c0,0-3.939-27.821,1.969-43.455
				c5.908-15.634-4.37-5.581-8.321,4.219c-3.951,9.8,1.233,34.068,1.233,34.068s-10.311-44.873-20.071-41.302
				c-9.76,3.571,14.592,32.972,17.97,48.266c0,0-11.509-20.582-20.24-16.298c-8.731,4.285,13.523,6.416,23.713,37.106l3.58,14.389
				c0,0-10.59-20.313-17.515-13.905c-6.925,6.408,20.532,17.468,26.912,48.254L94.378,350.145z"/>
			<g>
				<path style="fill:#EBEBEB;" d="M115.869,382.646H74.858c-6.072,0-10.994-4.922-10.994-10.994v-11.006h63v11.006
					C126.864,377.724,121.941,382.646,115.869,382.646z"/>
				<path style="fill:#F5F5F5;" d="M130.902,367.646H59.825c-2.326,0-4.211-1.885-4.211-4.211v-11.278
					c0-2.326,1.885-4.211,4.211-4.211h71.078c2.326,0,4.211,1.885,4.211,4.211v11.278
					C135.114,365.761,133.228,367.646,130.902,367.646z"/>
			</g>
			<path style="fill:#F5F5F5;" d="M92.952,352.125c0,0-1.531-43.366-22.958-61.732c-21.428-18.367,14.285-3.826,22.958,16.198
				c0,0-4.081-38.646-26.019-61.094c-21.938-22.448,12.244-8.038,21.428,18.429c0,0-3.571-34.496-15.306-51.461
				c-11.734-16.965,3.571-7.986,11.224,2.574c7.653,10.561,8.673,41.172,8.673,41.172s-1.02-56.818,11.734-55.449
				c12.755,1.37-7.653,43.839-7.143,63.164c0,0,7.653-28.081,19.387-25.551c11.734,2.53-14.285,11.714-17.346,51.508v18.301
				c0,0,6.632-27.485,16.836-21.873c10.204,5.612-19.387,27.04-17.856,65.814H92.952z"/>
		</g>
	</g>
</g>
<g id="Background_Simple" style="display:none;">
	<g style="display:inline;">
		<path style="fill:#407BFF;" d="M115.938,157.768c33.903-9.259,99.517,48.272,134.121,42.126
			c34.022-6.043,63.273-85.285,93.754-101.563c16.2-8.651,59.323-9.488,73.426,2.276c21.56,17.984,47.894,77.653,40.511,104.741
			c-10.164,37.291-70.19,96.771-105.076,113.413c-35.081,16.735-113.852,40.918-151.916,33.055
			c-40.625-8.392-126.52-47.623-141.789-86.194c-5.076-12.823,2.944-41.991,8.862-54.449
			C75.541,194.941,98.604,162.502,115.938,157.768z"/>
		<path style="opacity:0.9;fill:#FFFFFF;" d="M115.938,157.768c33.903-9.259,99.517,48.272,134.121,42.126
			c34.022-6.043,63.273-85.285,93.754-101.563c16.2-8.651,59.323-9.488,73.426,2.276c21.56,17.984,47.894,77.653,40.511,104.741
			c-10.164,37.291-70.19,96.771-105.076,113.413c-35.081,16.735-113.852,40.918-151.916,33.055
			c-40.625-8.392-126.52-47.623-141.789-86.194c-5.076-12.823,2.944-41.991,8.862-54.449
			C75.541,194.941,98.604,162.502,115.938,157.768z"/>
	</g>
</g>
<g id="Shadow">
	<ellipse id="_x3C_Path_x3E__1_" style="fill:#F5F5F5;" cx="245.178" cy="412.391" rx="193.889" ry="11.323"/>
</g>
<g id="Geometry">
	<g>
		<g>
			<polygon style="fill:#407BFF;" points="127.178,268.162 113.471,236.356 155.891,218.075 			"/>
			<polygon style="opacity:0.2;" points="127.178,268.162 113.471,236.356 155.891,218.075 			"/>
		</g>
		<g>
			<path style="fill:#407BFF;" d="M190.338,274.03c-3.829,8.809-14.075,12.846-22.884,9.017
				c-8.809-3.829-12.846-14.074-9.017-22.883L190.338,274.03z"/>
		</g>
		<g>
			<g>
				<path style="fill:#407BFF;" d="M180.128,260.851h-2.399v-9.887c0-0.856-0.696-1.552-1.553-1.552h-7.096
					c-2.179,0-3.952-1.773-3.952-3.952v-7.096c0-0.856-0.696-1.553-1.553-1.553h-7.097c-2.179,0-3.952-1.772-3.952-3.951v-7.097
					c0-0.856-0.696-1.553-1.552-1.553h-7.097c-2.179,0-3.951-1.773-3.951-3.951v-7.097c0-0.856-0.696-1.552-1.553-1.552h-9.887
					v-2.399h9.887c2.179,0,3.951,1.773,3.951,3.951v7.097c0,0.856,0.696,1.553,1.553,1.553h7.097c2.179,0,3.951,1.773,3.951,3.952
					v7.097c0,0.856,0.696,1.552,1.553,1.552h7.097c2.179,0,3.952,1.773,3.952,3.952v7.096c0,0.856,0.696,1.553,1.553,1.553h7.096
					c2.179,0,3.951,1.772,3.951,3.951V260.851z"/>
			</g>
			<g style="opacity:0.5;">
				<path style="fill:#FFFFFF;" d="M180.128,260.851h-2.399v-9.887c0-0.856-0.696-1.552-1.553-1.552h-7.096
					c-2.179,0-3.952-1.773-3.952-3.952v-7.096c0-0.856-0.696-1.553-1.553-1.553h-7.097c-2.179,0-3.952-1.772-3.952-3.951v-7.097
					c0-0.856-0.696-1.553-1.552-1.553h-7.097c-2.179,0-3.951-1.773-3.951-3.951v-7.097c0-0.856-0.696-1.552-1.553-1.552h-9.887
					v-2.399h9.887c2.179,0,3.951,1.773,3.951,3.951v7.097c0,0.856,0.696,1.553,1.553,1.553h7.097c2.179,0,3.951,1.773,3.951,3.952
					v7.097c0,0.856,0.696,1.552,1.553,1.552h7.097c2.179,0,3.952,1.773,3.952,3.952v7.096c0,0.856,0.696,1.553,1.553,1.553h7.096
					c2.179,0,3.951,1.772,3.951,3.951V260.851z"/>
			</g>
		</g>
		<g>
			
				<rect x="185.911" y="219.716" transform="matrix(0.7071 0.7071 -0.7071 0.7071 221.686 -72.0227)" style="fill:#407BFF;" width="23.743" height="23.743"/>
			
				<rect x="185.911" y="219.716" transform="matrix(0.7071 0.7071 -0.7071 0.7071 221.686 -72.0227)" style="opacity:0.2;fill:#FFFFFF;" width="23.743" height="23.743"/>
		</g>
	</g>
</g>
<g id="Lightbulb">
	<g>
		<g>
			<path style="fill:#407BFF;" d="M213.449,126.607c-2.57-21.765-22.298-37.325-44.063-34.755
				c-21.765,2.57-37.325,22.298-34.755,44.063c1.865,15.788,15.69,24.992,25.108,36.552c2.917,3.581,4.356,18.09,4.356,18.09
				l33.429-3.948c0,0-1.981-14.445,0.022-18.607C204.012,154.566,215.313,142.395,213.449,126.607z"/>
			<g>
				<path style="fill:#263238;" d="M191.831,199.268l-19.251,2.273c-3.915,0.462-7.464-2.337-7.926-6.252l-0.294-2.49l33.429-3.948
					l0.294,2.49C198.545,195.257,195.746,198.806,191.831,199.268z"/>
			</g>
			<g>
				<path style="fill:#263238;" d="M184.117,210.375l-1.447,0.171c-3.915,0.462-7.464-2.337-7.926-6.252l-0.085-0.724l15.625-1.845
					l0.086,0.724C190.831,206.364,188.032,209.913,184.117,210.375z"/>
				<path style="opacity:0.5;fill:#FFFFFF;" d="M184.117,210.375l-1.447,0.171c-3.915,0.462-7.464-2.337-7.926-6.252l-0.085-0.724
					l15.625-1.845l0.086,0.724C190.831,206.364,188.032,209.913,184.117,210.375z"/>
			</g>
			<g>
				<path style="fill:#407BFF;" d="M213.449,126.607c-1.927-16.314-13.493-29.141-28.331-33.461
					c-9.309-0.894-23.466-1.305-22.769,4.597c1.034,8.756,20.551,2.727,25.513,7.054c4.962,4.328-13.125,15.62-6.797,19.866
					c6.328,4.247,17.139-7.573,17.139-7.573s-2.761,16.556,2.028,17.17c4.789,0.614,2.691-12.456,5.7-12.811
					c3.01-0.355,7.086,6.072,5.145,21.296C213.043,137.692,214.132,132.393,213.449,126.607z"/>
				<path style="opacity:0.5;fill:#FFFFFF;" d="M213.449,126.607c-1.927-16.314-13.493-29.141-28.331-33.461
					c-9.309-0.894-23.466-1.305-22.769,4.597c1.034,8.756,20.551,2.727,25.513,7.054c4.962,4.328-13.125,15.62-6.797,19.866
					c6.328,4.247,17.139-7.573,17.139-7.573s-2.761,16.556,2.028,17.17c4.789,0.614,2.691-12.456,5.7-12.811
					c3.01-0.355,7.086,6.072,5.145,21.296C213.043,137.692,214.132,132.393,213.449,126.607z"/>
			</g>
			<g>
				<path style="fill:#407BFF;" d="M190.761,129.345c0,0-14.729,6.733-10.494,12.059
					C184.503,146.73,190.761,129.345,190.761,129.345z"/>
				<path style="opacity:0.7;fill:#FFFFFF;" d="M190.761,129.345c0,0-14.729,6.733-10.494,12.059
					C184.503,146.73,190.761,129.345,190.761,129.345z"/>
			</g>
		</g>
		<g>
			<path style="fill:#407BFF;" d="M147.776,93.188c-2.17,1.601-4.198,3.363-6.081,5.293c-0.337,0.346,0.192,0.876,0.53,0.53
				c1.839-1.883,3.812-3.613,5.93-5.176C148.538,93.552,148.165,92.901,147.776,93.188L147.776,93.188z"/>
		</g>
		<g>
			<path style="fill:#407BFF;" d="M136.083,105.495c-5.979,9.47-8.465,20.097-7.355,31.242c0.047,0.476,0.798,0.481,0.75,0
				c-1.096-11.003,1.346-21.508,7.252-30.863C136.989,105.464,136.34,105.088,136.083,105.495L136.083,105.495z"/>
		</g>
		<path style="fill:#407BFF;" d="M224.531,108.198c0,0,1.408-41.182,16.995-38.515C257.114,72.35,224.531,108.198,224.531,108.198z"
			/>
		<g>
			<path style="fill:#407BFF;" d="M213.188,97.323c0,0-24.165-18.841-16.871-25.517S213.188,97.323,213.188,97.323z"/>
			<path style="opacity:0.5;fill:#FFFFFF;" d="M213.188,97.323c0,0-24.165-18.841-16.871-25.517S213.188,97.323,213.188,97.323z"/>
		</g>
		<g>
			<path style="fill:#407BFF;" d="M202.724,178.203c0,0,10.503-23.658,19.246-18.04S202.724,178.203,202.724,178.203z"/>
			<path style="opacity:0.2;" d="M202.724,178.203c0,0,10.503-23.658,19.246-18.04S202.724,178.203,202.724,178.203z"/>
		</g>
		<g>
			<path style="fill:#407BFF;" d="M156.805,180.088c0,0-10.926-13.533-15.626-8.368
				C136.479,176.885,156.805,180.088,156.805,180.088z"/>
			<path style="opacity:0.5;fill:#FFFFFF;" d="M156.805,180.088c0,0-10.926-13.533-15.626-8.368
				C136.479,176.885,156.805,180.088,156.805,180.088z"/>
		</g>
		<g style="opacity:0.7;">
			<path style="fill:#FFFFFF;" d="M191.831,199.268l-19.251,2.273c-3.915,0.462-7.464-2.337-7.926-6.252l-0.294-2.49l33.429-3.948
				l0.294,2.49C198.545,195.257,195.746,198.806,191.831,199.268z"/>
		</g>
	</g>
	<g>
		<path style="fill:#407BFF;" d="M274.838,145.33c-3.776-13.232-7.053-29.633-20.829-26.462c-7.546,1.737-5.511-8.849-5.038-12.508
			c0.473-3.659,4.579-6.939,7.848-5.227c1.431,0.749,2.337,2.219,3.639,3.175c3.228,2.368,8.077,0.859,10.72-2.149
			c2.643-3.007,3.669-7.059,4.741-10.916c1.072-3.857,2.403-7.887,5.422-10.518c3.774-3.29,9.896-3.471,13.859-0.412
			c3.963,3.06,5.335,9.029,3.107,13.512c5.496-0.532,9.85-4.833,13.089-9.305c3.239-4.473,5.983-9.493,10.435-12.761
			c4.451-3.268,11.4-4.08,15.102,0.017c3.945,4.365,1.975,11.581-1.921,15.992c-3.895,4.41-9.294,7.272-13.233,11.643
			c-3.939,4.371-6.057,11.508-2.244,15.99c2.911,3.422,7.909,3.848,12.255,4.988c4.473,1.174,8.972,3.664,10.821,7.902
			c1.849,4.238-0.308,10.247-4.87,11.005c-5.206,0.865-8.902-4.73-11.395-9.381c-2.493-4.652-7.129-9.882-12.023-7.906
			c-5.096,2.057-4.483,9.47-2.456,14.578c2.305,5.809,5.267,11.358,8.811,16.505c2.367,3.438,5.044,8.03,2.57,11.391
			c-2.747,3.734-9.103,1.439-11.433-2.568c-3.463-5.953-3.013-20.246-13.232-19.178c-2.67,0.279-4.905,3.113-7.515,3.829
			C286.429,147.843,276.117,149.812,274.838,145.33z"/>
		<path style="opacity:0.1;fill:#FFFFFF;" d="M274.838,145.33c-3.776-13.232-7.053-29.633-20.829-26.462
			c-7.546,1.737-5.511-8.849-5.038-12.508c0.473-3.659,4.579-6.939,7.848-5.227c1.431,0.749,2.337,2.219,3.639,3.175
			c3.228,2.368,8.077,0.859,10.72-2.149c2.643-3.007,3.669-7.059,4.741-10.916c1.072-3.857,2.403-7.887,5.422-10.518
			c3.774-3.29,9.896-3.471,13.859-0.412c3.963,3.06,5.335,9.029,3.107,13.512c5.496-0.532,9.85-4.833,13.089-9.305
			c3.239-4.473,5.983-9.493,10.435-12.761c4.451-3.268,11.4-4.08,15.102,0.017c3.945,4.365,1.975,11.581-1.921,15.992
			c-3.895,4.41-9.294,7.272-13.233,11.643c-3.939,4.371-6.057,11.508-2.244,15.99c2.911,3.422,7.909,3.848,12.255,4.988
			c4.473,1.174,8.972,3.664,10.821,7.902c1.849,4.238-0.308,10.247-4.87,11.005c-5.206,0.865-8.902-4.73-11.395-9.381
			c-2.493-4.652-7.129-9.882-12.023-7.906c-5.096,2.057-4.483,9.47-2.456,14.578c2.305,5.809,5.267,11.358,8.811,16.505
			c2.367,3.438,5.044,8.03,2.57,11.391c-2.747,3.734-9.103,1.439-11.433-2.568c-3.463-5.953-3.013-20.246-13.232-19.178
			c-2.67,0.279-4.905,3.113-7.515,3.829C286.429,147.843,276.117,149.812,274.838,145.33z"/>
	</g>
	<path style="fill:#407BFF;" d="M358.63,111.01c-0.193,0.857,0.086,1.778,0.615,2.479c0.506,0.67,1.278,1.18,2.117,1.202
		c0.922,0.025,1.769-0.528,2.403-1.198c0.578-0.61,1.05-1.385,1.045-2.226c-0.005-0.865-0.536-1.678-1.268-2.139
		C361.786,108.023,359.11,108.873,358.63,111.01z"/>
	<path style="fill:#407BFF;" d="M340.944,163.228c-0.143,0.635,0.063,1.316,0.455,1.835c0.374,0.496,0.946,0.873,1.567,0.89
		c0.682,0.018,1.309-0.391,1.779-0.887c0.427-0.452,0.777-1.025,0.774-1.647c-0.003-0.64-0.397-1.242-0.938-1.583
		C343.28,161.017,341.299,161.646,340.944,163.228z"/>
	<path style="fill:#407BFF;" d="M293.201,68.409c-0.28,1.5,0.124,3.109,0.894,4.337c0.735,1.172,1.857,2.063,3.076,2.103
		c1.34,0.043,2.57-0.924,3.492-2.095c0.839-1.067,1.525-2.423,1.519-3.893c-0.007-1.512-0.779-2.935-1.842-3.741
		C297.787,63.184,293.899,64.671,293.201,68.409z"/>
	<g>
		<path style="fill:#407BFF;" d="M342.491,79.443c-0.386,1.715,0.171,3.556,1.23,4.959c1.011,1.34,2.556,2.359,4.235,2.404
			c1.844,0.049,3.538-1.056,4.807-2.396c1.155-1.22,2.1-2.771,2.091-4.451c-0.009-1.729-1.073-3.356-2.536-4.278
			C348.804,73.469,343.451,75.169,342.491,79.443z"/>
		<path style="opacity:0.1;fill:#FFFFFF;" d="M342.491,79.443c-0.386,1.715,0.171,3.556,1.23,4.959
			c1.011,1.34,2.556,2.359,4.235,2.404c1.844,0.049,3.538-1.056,4.807-2.396c1.155-1.22,2.1-2.771,2.091-4.451
			c-0.009-1.729-1.073-3.356-2.536-4.278C348.804,73.469,343.451,75.169,342.491,79.443z"/>
	</g>
</g>
<g id="Character">
	<g>
		<g>
			<g>
				<polygon style="fill:#FFB573;" points="317.102,309.548 338.47,303.694 343.208,311.653 323.464,320.139 				"/>
				<g>
					<path style="fill:#407BFF;" d="M344.496,315.345c0.544,1.091,0.908,2.318,0.619,2.914c-0.181,0.324-0.546,0.498-0.912,0.435
						c-0.314-0.026-0.606-0.174-0.813-0.412c-1.134-1.264-0.914-5.198-0.903-5.371c0.006-0.098,0.072-0.181,0.166-0.209
						c0.094-0.026,0.194,0.007,0.254,0.083C343.511,313.591,344.043,314.447,344.496,315.345z M343.485,317.593
						c0.065,0.136,0.149,0.261,0.25,0.372c0.116,0.159,0.298,0.255,0.494,0.263c0.336,0.025,0.434-0.091,0.475-0.186
						c0.368-0.692-0.723-2.912-1.74-4.444C342.884,314.951,343.061,316.306,343.485,317.593z"/>
					<path style="fill:#407BFF;" d="M342.92,312.819c0.023,0.025,0.035,0.057,0.036,0.09c0.058,1.281-0.792,4.34-1.872,4.645
						c-0.249,0.097-0.628,0.063-0.971-0.481c-0.253-0.396-0.333-0.878-0.223-1.334c0.361-1.576,2.611-2.991,2.715-3.058
						c0.072-0.043,0.162-0.043,0.234-0.001C342.884,312.716,342.912,312.765,342.92,312.819z M340.438,316.739l0.049,0.124
						c0.218,0.358,0.381,0.307,0.442,0.296c0.622-0.243,1.42-2.369,1.521-3.777c-0.943,0.6-1.679,1.476-2.109,2.508
						C340.269,316.175,340.304,316.477,340.438,316.739L340.438,316.739z"/>
					<path style="fill:#263238;" d="M341.232,312.503l-4.781-9.579c-0.18-0.361-0.086-0.799,0.227-1.053l6.928-5.621
						c0.611-0.503,1.514-0.415,2.017,0.195c0.064,0.078,0.121,0.163,0.167,0.254c1.663,3.483,3.007,6.648,5.158,10.943
						c2.534,5.072,2.498,3.482,5.56,9.404c1.841,3.57-1.915,6.266-2.877,4.843c-4.359-6.536-6.826-6.209-10.665-7.653
						C342.195,313.89,341.578,313.273,341.232,312.503z"/>
				</g>
				<polygon style="opacity:0.1;" points="331.927,316.502 336.572,314.505 333.226,305.131 328.801,306.343 				"/>
			</g>
			<g>
				<polygon style="fill:#FFB573;" points="271.722,335.435 292.739,342.446 292.254,351.696 271.124,347.776 				"/>
				<g>
					<path style="fill:#407BFF;" d="M291.272,355.481c-0.154,1.209-0.534,2.431-1.105,2.766c-0.331,0.169-0.731,0.111-1-0.145
						c-0.247-0.197-0.407-0.482-0.447-0.794c-0.24-1.681,2.13-4.829,2.235-4.967c0.059-0.078,0.161-0.111,0.254-0.081
						c0.092,0.031,0.157,0.113,0.165,0.21C291.428,353.475,291.394,354.482,291.272,355.481z M289.182,356.788
						c-0.022,0.149-0.021,0.299,0.001,0.448c0.008,0.196,0.106,0.378,0.265,0.493c0.265,0.208,0.411,0.165,0.498,0.11
						c0.691-0.371,1.018-2.823,1.024-4.661C290.151,354.257,289.545,355.482,289.182,356.788z"/>
					<path style="fill:#407BFF;" d="M291.366,352.505c0.005,0.033-0.002,0.067-0.021,0.095c-0.664,1.098-3.07,3.168-4.138,2.821
						c-0.261-0.057-0.557-0.296-0.54-0.939c0.01-0.47,0.211-0.915,0.557-1.233c1.176-1.109,3.833-1.036,3.957-1.033
						c0.084,0.004,0.159,0.054,0.195,0.13C291.393,352.399,291.389,352.456,291.366,352.505z M287.124,354.384l-0.029,0.13
						c-0.018,0.419,0.146,0.467,0.203,0.492c0.652,0.143,2.497-1.18,3.364-2.295c-1.118-0.025-2.216,0.294-3.147,0.913
						C287.297,353.822,287.158,354.091,287.124,354.384L287.124,354.384z"/>
					<path style="fill:#263238;" d="M290.138,351.303l1.35-10.62c0.051-0.4,0.372-0.712,0.774-0.75l8.884-0.821
						c0.787-0.079,1.49,0.496,1.568,1.283c0.01,0.101,0.009,0.203-0.002,0.304c-0.553,3.82-1.196,7.197-1.795,11.964
						c-0.713,5.625,0.141,4.283-0.605,10.908c-0.454,3.991-5.075,4.145-5.084,2.427c0.01-7.856-2.223-8.955-4.611-12.29
						C290.168,352.993,289.997,352.137,290.138,351.303z"/>
				</g>
				<polygon style="opacity:0.1;" points="278.304,349.108 283.352,350.044 285.367,339.987 281.434,338.675 				"/>
			</g>
			<g>
				<path style="fill:#407BFF;" d="M232.685,233.915c0,0-8.887,15.667-19.887,52.667s-3.667,49.667,31,58l33.333,5l2.667-12
					c0,0-28.115-13.484-44.422-19.159c-1.875-0.652-2.765-2.78-1.892-4.563c5.438-11.097,22.517-47.298,28.647-76.278
					L232.685,233.915z"/>
				<path style="opacity:0.1;" d="M232.685,233.915c0,0-8.887,15.667-19.887,52.667s-3.667,49.667,31,58l33.333,5l2.667-12
					c0,0-28.379-13.61-44.65-19.238c-1.756-0.607-2.586-2.604-1.767-4.272c5.322-10.842,22.581-47.323,28.751-76.489
					L232.685,233.915z"/>
				<path style="fill:#407BFF;" d="M279.235,335.748l-3.813,15c0,0,2,2.25,4.375,1.188l3.313-15.313
					C283.11,336.623,281.735,334.123,279.235,335.748z"/>
				<path style="opacity:0.6;fill:#FFFFFF;" d="M279.235,335.748l-3.813,15c0,0,2,2.25,4.375,1.188l3.313-15.313
					C283.11,336.623,281.735,334.123,279.235,335.748z"/>
			</g>
			<g>
				<path style="fill:#407BFF;" d="M241.464,245.581c1.279,17.888,7.333,51,12.333,70.667c5,19.667,18.333,23.667,32.333,21
					c14-2.667,36.667-16,46.333-19l-4-13c0,0-31.387,6.118-44.739,12.176c-1.821,0.826-3.878-0.529-3.875-2.528
					c0.021-14.409-1.004-58.241-13.719-77.314l-24.667-2.573C241.464,235.008,241.276,242.945,241.464,245.581z"/>
				<path style="fill:#407BFF;" d="M325.881,304.415l5.083,15.5c0,0,2.417,0.5,4-1.25l-5.083-15.333
					C329.881,303.332,327.714,302.082,325.881,304.415z"/>
				<path style="opacity:0.6;fill:#FFFFFF;" d="M325.881,304.415l5.083,15.5c0,0,2.417,0.5,4-1.25l-5.083-15.333
					C329.881,303.332,327.714,302.082,325.881,304.415z"/>
			</g>
			<g>
				<path style="fill:#FFB573;" d="M246.298,173.415l-2.984-15.547c-0.121-0.628-0.107-1.275,0.04-1.897l7.945-30.556l3.919-4.185
					c0.536-0.634,0.83-1.438,0.83-2.268v-2.637c0-0.382,0.063-0.762,0.185-1.124l0.748-2.214c0.631-1.868-0.398-3.89-2.281-4.478
					l-0.483-0.151c-0.907-0.284-1.891-0.187-2.726,0.267l-4.618,2.51c-1.081,0.588-1.776,1.698-1.832,2.928l-0.41,9.019
					c0,0-14,26-13.167,34.833c0.833,8.833,5,22.077,5,22.077S242.798,179.915,246.298,173.415z"/>
				<path style="fill:#FFB573;" d="M288.297,182.248l14.833-9.667l11.337-29l-1.118-5.157c-0.141-0.652-0.047-1.333,0.266-1.922
					l1.553-2.923c0.49-0.922,1.449-1.498,2.493-1.498h0.318c0.535,0,1.059-0.152,1.51-0.438l1.731-1.096
					c1.39-0.88,3.235-0.39,4.005,1.064l2.506,6.622c0.622,1.176,0.34,2.626-0.679,3.482l-5.587,5.533c0,0-5.667,29.488-8.667,32.744
					c-3,3.256-19.333,11.423-19.333,11.423L288.297,182.248z"/>
				<path style="fill:#263238;" d="M251.298,180.915l-2.333-7.833c0,0,1.667-3.5-1.333-3.5c0,0-8.667,2.167-14.5,10.411
					c0,0-1.5,3.256,1,3.423l2.5,11.5C236.631,194.915,251.464,188.748,251.298,180.915z"/>
				<path style="fill:#263238;" d="M273.797,184.748c0,0,10.5-2.846,12.5-4.756c0,0,1.089-2.862,3.089-2.529
					c2,0.333,6.578,7.452,6.578,14.618c0,0,0,3.667-3,1.833c0,0-5.833,4.167-16.5,7.333
					C276.464,201.248,269.797,190.915,273.797,184.748z"/>
				<g>
					<path style="fill:#FFB573;" d="M259.609,186.382c4.385,0.601,8.753-0.79,11.591-2.022c0.379-0.594,0.451-0.956,0.451-0.956
						c-3.155-4.103-0.927-11.693,0.923-16.814l-11.47,7.068c0.387,4.274,0.178,6.701-5.963,7.194c0,0-0.622,0.392-1.2,1.309
						C254.527,183.986,256.013,185.889,259.609,186.382z"/>
					<path style="opacity:0.2;enable-background:new    ;" d="M267.924,169.432l-6.754,4.236c0.108,0.994,0.127,1.997,0.055,2.994
						c2.319,0.03,6.163-1.341,7.027-3.721C268.436,171.762,268.323,170.556,267.924,169.432z"/>
					<g>
						<path style="fill:#263238;" d="M267.181,141.966c0,0-11.672-1.63-10.26,3.816
							C258.333,151.227,267.181,141.966,267.181,141.966z"/>
						<path style="opacity:0.5;" d="M267.181,141.966c0,0-11.672-1.63-10.26,3.816C258.333,151.227,267.181,141.966,267.181,141.966
							z"/>
					</g>
					<g>
						<path style="fill:#263238;" d="M281.842,143.488c-0.585-2.064-2.03-7.861,1.025-8.438c5.262-0.992,6.323,4.905,6.323,4.905
							s7.434-0.124,2.773,6.753c0,0,2.941,5.62-3.327,4.967C284.912,151.287,282.528,145.908,281.842,143.488z"/>
						<path style="opacity:0.2;" d="M281.842,143.488c-0.585-2.064-2.03-7.861,1.025-8.438c5.262-0.992,6.323,4.905,6.323,4.905
							s7.434-0.124,2.773,6.753c0,0,2.941,5.62-3.327,4.967C284.912,151.287,282.528,145.908,281.842,143.488z"/>
					</g>
					<path style="fill:#407BFF;" d="M279.985,143.333c0,0,3.18-2.681,5.565,0.801c2.385,3.482-1.991,6.019-1.991,6.019
						S282.377,145.018,279.985,143.333z"/>
					<path style="fill:#263238;" d="M273.409,169.662c0,0,1.805,4.685-0.469,4.824C270.666,174.626,273.749,172.755,273.409,169.662
						z"/>
					<path style="fill:#FFB573;" d="M280.891,158.581c-3.716,8.308-5.115,11.89-11.046,14.631
						c-8.927,4.133-18.311-2.26-17.155-11.499c1.057-8.323,6.979-20.548,16.56-20.745c6.849-0.211,12.572,5.169,12.783,12.018
						C282.093,154.914,281.702,156.83,280.891,158.581z"/>
					<g>
						<g>
							<path style="fill:#263238;" d="M258.69,152.781c-0.269,0.702-0.846,1.114-1.294,0.95c-0.448-0.163-0.609-0.877-0.355-1.567
								c0.254-0.691,0.846-1.114,1.292-0.937C258.779,151.403,258.944,152.09,258.69,152.781z"/>
							<path style="fill:#263238;" d="M258.519,151.336l-1.479-1.104C257.04,150.232,257.4,151.854,258.519,151.336z"/>
						</g>
						<path style="fill:#ED893E;" d="M259.433,156.019c-1.215,1.346-2.608,2.519-4.14,3.487c0.529,0.775,1.368,1.282,2.3,1.392
							L259.433,156.019z"/>
						<path style="fill:#263238;" d="M270.671,154.4c-0.19,0.004-0.36-0.118-0.417-0.299c-0.612-1.292-1.735-2.269-3.099-2.697
							c-0.232-0.07-0.365-0.313-0.296-0.546c0.067-0.226,0.305-0.355,0.531-0.288c0.005,0.002,0.01,0.003,0.015,0.005
							c1.643,0.502,2.986,1.696,3.677,3.268c0.071,0.225-0.054,0.465-0.279,0.536l0,0
							C270.762,154.399,270.716,154.406,270.671,154.4z"/>
						<path style="fill:#263238;" d="M257.665,148.054c-0.149-0.052-0.261-0.179-0.294-0.333c-0.045-0.235,0.106-0.464,0.34-0.514
							c1.38-0.332,2.834,0.044,3.879,1.005c0.167,0.157,0.174,0.419,0.018,0.585c-0.008,0.008-0.016,0.016-0.024,0.024
							c-0.167,0.167-0.438,0.166-0.604-0.002c-0.002-0.002-0.003-0.003-0.005-0.005l0,0c-0.841-0.72-1.975-0.995-3.052-0.742
							C257.838,148.093,257.747,148.087,257.665,148.054z"/>
						<g>
							<path style="fill:#263238;" d="M266.511,155.706c-0.267,0.689-0.846,1.114-1.294,0.951c-0.448-0.163-0.609-0.877-0.355-1.567
								c0.254-0.691,0.846-1.114,1.294-0.951C266.604,154.302,266.721,155.036,266.511,155.706z"/>
							<path style="fill:#263238;" d="M266.33,154.327l-1.479-1.104C264.85,153.223,265.218,154.792,266.33,154.327z"/>
						</g>
					</g>
					<path style="fill:#263238;" d="M277.753,163.415c0,0-2.822-6.849-1.272-14.685c0,0-15.081-0.123-10.219-3.901
						c0,0-12.708-3.339-7.743-9.062c4.965-5.723,13.669-1.789,17.127,3.219c0,0,7.692,3.107,8.704,11.247
						c1.192,9.589-10.565,24.187-11.327,20.429C272.574,168.447,277.753,163.415,277.753,163.415z"/>
					<path style="fill:#FFB573;" d="M280.745,165.989c-1.107,1.321-2.69,2.152-4.406,2.312c-2.283,0.178-2.995-1.971-1.996-3.912
						c0.914-1.738,3.195-3.929,5.318-3.24c1.527,0.55,2.318,2.233,1.769,3.76C281.284,165.314,281.05,165.683,280.745,165.989z"/>
				</g>
				<path style="fill:#263238;" d="M273.483,183.198c-2.309,1.789-6.765,4.378-12.313,3.318c-5.623-1.075-6.298-4.481-6.167-6.517
					c-10.512-0.098-14.956,2.75-14.956,2.75c-7.75,10.75-9.75,54.25-9.75,54.25c17.75,5.5,39.29,5.75,39.29,5.75
					c1.75-14.75,14.364-49.748,14.364-49.748S282.466,186.991,273.483,183.198z"/>
				<g>
					<path style="fill:#263238;" d="M253.082,179.623l2.932-0.042c0,0-0.717,4.292,4.658,5.292c5.375,1,12.293-2.467,12.293-2.467
						l2.957,1.381c0,0-7.648,5.836-16.324,3.836C250.923,185.623,253.082,179.623,253.082,179.623z"/>
					<path style="opacity:0.7;fill:#FFFFFF;" d="M253.082,179.623l2.932-0.042c0,0-0.717,4.292,4.658,5.292
						c5.375,1,12.293-2.467,12.293-2.467l2.957,1.381c0,0-7.648,5.836-16.324,3.836
						C250.923,185.623,253.082,179.623,253.082,179.623z"/>
				</g>
			</g>
			<g>
				<path d="M265.871,108.301c-0.095-0.152-1.102-3.409,3.31-5.431c4.412-2.022,5.239-0.112,7.843-1.371
					c0,0-1.006,3.576-4.712,6.489C268.606,110.903,266.244,108.897,265.871,108.301z"/>
				<g>
					<path style="fill:#407BFF;" d="M255.378,118.591c-5.383,3.37-21.709,12.005-22.588,10.601
						c-0.879-1.404,14.021-12.317,19.404-15.687c5.383-3.37,10.46-4.964,11.339-3.559
						C264.413,111.35,260.761,115.221,255.378,118.591z"/>
					<path style="opacity:0.4;fill:#FFFFFF;" d="M255.378,118.591c-5.383,3.37-21.709,12.005-22.588,10.601
						c-0.879-1.404,14.021-12.317,19.404-15.687c5.383-3.37,10.46-4.964,11.339-3.559
						C264.413,111.35,260.761,115.221,255.378,118.591z"/>
				</g>
				<path style="fill:#263238;" d="M262.063,112.074l-1.086-1.735c-0.237-0.379-0.122-0.879,0.257-1.116l4.576-2.865l1.945,3.108
					l-4.576,2.865C262.8,112.568,262.301,112.453,262.063,112.074z"/>
				<path style="opacity:0.5;fill:#FFFFFF;" d="M262.063,112.074l-1.086-1.735c-0.237-0.379-0.122-0.879,0.257-1.116l4.576-2.865
					l1.945,3.108l-4.576,2.865C262.8,112.568,262.301,112.453,262.063,112.074z"/>
				<path style="fill:#407BFF;" d="M277.025,101.5c-2.604,1.258-3.431-0.651-7.843,1.371c-0.48,0.22-0.886,0.457-1.246,0.701
					c-0.216,0.278-0.289,0.557-0.096,0.806c0.786,1.02,3.739-1.271,4.299-0.553c0.56,0.718-1.321,1.306-0.628,2.236
					c0.691,0.927-0.807,1.811-0.153,2.582c0.309-0.186,0.624-0.394,0.955-0.654C276.019,105.076,277.025,101.5,277.025,101.5z"/>
			</g>
			<g>
				<g>
					<g>
						<path style="fill:#407BFF;" d="M333.061,121.012c-11.535-1.752-21.554,1.226-22.378,6.652
							c-0.469,3.089,6.548,3.94,11.013,6.46c3.378,1.907,3.412,5.782,8.381,6.536c11.535,1.752,21.554-1.227,22.378-6.652
							C353.279,128.583,344.596,122.764,333.061,121.012z M331.125,132.096c-2.662-0.404-4.685-1.617-4.519-2.709
							c0.166-1.092,2.458-1.649,5.12-1.245c2.662,0.404,4.685,1.617,4.519,2.709C336.079,131.943,333.786,132.501,331.125,132.096z"
							/>
						<path style="opacity:0.9;fill:#263238;" d="M333.061,121.012c-11.535-1.752-21.554,1.226-22.378,6.652
							c-0.469,3.089,6.548,3.94,11.013,6.46c3.378,1.907,3.412,5.782,8.381,6.536c11.535,1.752,21.554-1.227,22.378-6.652
							C353.279,128.583,344.596,122.764,333.061,121.012z M331.125,132.096c-2.662-0.404-4.685-1.617-4.519-2.709
							c0.166-1.092,2.458-1.649,5.12-1.245c2.662,0.404,4.685,1.617,4.519,2.709C336.079,131.943,333.786,132.501,331.125,132.096z"
							/>
					</g>
				</g>
				<g>
					<path style="fill:#407BFF;" d="M324.611,125.986c0,0.851-1.474,1.542-3.292,1.542c-1.818,0-3.292-0.69-3.292-1.542
						c0-0.852,1.474-1.542,3.292-1.542C323.137,124.444,324.611,125.134,324.611,125.986z"/>
					<path style="opacity:0.9;fill:#FFFFFF;" d="M324.611,125.986c0,0.851-1.474,1.542-3.292,1.542c-1.818,0-3.292-0.69-3.292-1.542
						c0-0.852,1.474-1.542,3.292-1.542C323.137,124.444,324.611,125.134,324.611,125.986z"/>
				</g>
				<g>
					<path style="fill:#407BFF;" d="M334.3,122.84c0,0.656-1.333,1.188-2.978,1.188c-1.645,0-2.978-0.532-2.978-1.188
						c0-0.656,1.333-1.188,2.978-1.188C332.967,121.652,334.3,122.184,334.3,122.84z"/>
					<path style="opacity:0.7;fill:#FFFFFF;" d="M334.3,122.84c0,0.656-1.333,1.188-2.978,1.188c-1.645,0-2.978-0.532-2.978-1.188
						c0-0.656,1.333-1.188,2.978-1.188C332.967,121.652,334.3,122.184,334.3,122.84z"/>
				</g>
				<g>
					<ellipse style="fill:#407BFF;" cx="341.527" cy="127.152" rx="3.875" ry="1.641"/>
					<ellipse style="opacity:0.6;fill:#FFFFFF;" cx="341.527" cy="127.152" rx="3.875" ry="1.641"/>
				</g>
				<g>
					<path style="fill:#407BFF;" d="M348.611,134.736c0,0.828-1.586,1.5-3.542,1.5s-3.542-0.672-3.542-1.5s1.586-1.5,3.542-1.5
						S348.611,133.907,348.611,134.736z"/>
					<path style="opacity:0.8;fill:#FFFFFF;" d="M348.611,134.736c0,0.828-1.586,1.5-3.542,1.5s-3.542-0.672-3.542-1.5
						s1.586-1.5,3.542-1.5S348.611,133.907,348.611,134.736z"/>
				</g>
				<g>
					<path style="fill:#407BFF;" d="M337.629,136.444c0,0.943-1.702,1.708-3.801,1.708c-2.099,0-3.801-0.765-3.801-1.708
						c0-0.944,1.702-1.708,3.801-1.708C335.927,134.736,337.629,135.501,337.629,136.444z"/>
					<path style="opacity:0.4;fill:#FFFFFF;" d="M337.629,136.444c0,0.943-1.702,1.708-3.801,1.708
						c-2.099,0-3.801-0.765-3.801-1.708c0-0.944,1.702-1.708,3.801-1.708C335.927,134.736,337.629,135.501,337.629,136.444z"/>
				</g>
			</g>
			<path style="fill:#FFB573;" d="M316.374,133.236c0,0,3.805-3.058,6.306-3.133c0.549-0.016,0.999,0.456,1,1.005
				c0.002,0.809-0.122,1.932-0.806,2.128c-1.09,0.312-3.5,2.014-3.5,2.014L316.374,133.236z"/>
		</g>
		<g>
			<path style="fill:#407BFF;" d="M236.941,196.483c0.423-1.852,1.206-5.232,6.032-1.108c4.825,4.124,3.746-2.109,7.503-1.908
				c3.756,0.201-1.069,7.64-1.069,7.64s5.944-0.603,5.887,3.016c-0.057,3.619-7.701,2.204-7.701,2.204s-3.615,10.663-6.832,6.843
				c-3.217-3.82,2.134-8.042,1.268-11.46C241.163,198.292,235.951,200.813,236.941,196.483z"/>
			<path style="opacity:0.8;fill:#FFFFFF;" d="M236.941,196.483c0.423-1.852,1.206-5.232,6.032-1.108
				c4.825,4.124,3.746-2.109,7.503-1.908c3.756,0.201-1.069,7.64-1.069,7.64s5.944-0.603,5.887,3.016
				c-0.057,3.619-7.701,2.204-7.701,2.204s-3.615,10.663-6.832,6.843c-3.217-3.82,2.134-8.042,1.268-11.46
				C241.163,198.292,235.951,200.813,236.941,196.483z"/>
		</g>
		<g>
			<path style="fill:#407BFF;" d="M256.829,232.113c0.439-2.36-1.506-7.64,1.737-9.444c3.242-1.804,3.05,6.415,6.146,4.722
				c3.096-1.693,4.096,1.47,2.763,4.722c-1.333,3.252-3.693,3.752-2.763,6.752c0.93,3-1.889,0.333-6.146-1.667
				C254.309,235.198,256.379,234.533,256.829,232.113z"/>
			<path style="opacity:0.2;" d="M256.829,232.113c0.439-2.36-1.506-7.64,1.737-9.444c3.242-1.804,3.05,6.415,6.146,4.722
				c3.096-1.693,4.096,1.47,2.763,4.722c-1.333,3.252-3.693,3.752-2.763,6.752c0.93,3-1.889,0.333-6.146-1.667
				C254.309,235.198,256.379,234.533,256.829,232.113z"/>
		</g>
		<g>
			<g>
				<path style="fill:#407BFF;" d="M228.727,376.709c-2.248,10.972-0.818,21.792,4.158,31.825c0.212,0.428,0.916,0.168,0.702-0.265
					c-4.913-9.906-6.34-20.597-4.12-31.435C229.564,376.36,228.824,376.237,228.727,376.709L228.727,376.709z"/>
			</g>
			<g>
				<path style="fill:#407BFF;" d="M238.022,366.655c-0.277-0.003-0.524-0.048-0.757-0.114c-2.132,6.75-2.746,13.854-1.798,21.136
					c0.062,0.474,0.812,0.456,0.75-0.023C235.274,380.422,235.888,373.361,238.022,366.655z"/>
				<path style="fill:#407BFF;" d="M241.874,356.228c-0.998,1.691-1.88,3.416-2.661,5.168c0.243,0.109,0.447,0.261,0.631,0.43
					c0.784-1.777,1.678-3.526,2.688-5.24C242.779,356.17,242.119,355.813,241.874,356.228z"/>
			</g>
		</g>
		<g>
			<path style="fill:#263238;" d="M256.741,163.294c0,0,2.227-0.479,8.448-0.132c-0.734,2.159-2.104,3.856-5.295,3.679
				c-1.594,0.09-3-1.359-3.142-3.237C256.744,163.501,256.74,163.397,256.741,163.294z"/>
			<path style="fill:#A02724;" d="M261.373,165.167c-1.225-0.147-2.443,0.163-3.48,0.884c0.589,0.485,1.284,0.753,1.99,0.765
				c1.223,0.151,2.439-0.159,3.473-0.883C262.772,165.439,262.078,165.171,261.373,165.167z"/>
			<path style="fill:#FFFFFF;" d="M257.025,163.25c0.124,0.555,0.498,0.995,0.97,1.141c1.847,0.092,3.692,0.005,5.515-0.259
				c0.59-0.035,1.115-0.412,1.401-1.008C262.275,162.927,259.638,162.969,257.025,163.25z"/>
		</g>
	</g>
</g>
<g id="Music">
	<g>
		<path style="fill:#407BFF;" d="M319.156,198.431l-13.283,3.61l1.005,19.179c-0.857-0.066-1.854,0.03-2.915,0.319
			c-3.044,0.827-5.438,2.894-5.348,4.617c0.09,1.722,2.631,2.448,5.675,1.621c3.044-0.827,5.438-2.894,5.348-4.617
			c-0.245-4.678-0.941-17.964-0.941-17.964l8.449-2.296L319.156,198.431z"/>
		<path style="fill:#407BFF;" d="M366.746,206.058l-7.809,2.122l0.591,11.275c-0.504-0.039-1.09,0.018-1.714,0.187
			c-1.79,0.486-3.197,1.701-3.144,2.714c0.053,1.013,1.547,1.439,3.336,0.953c1.79-0.486,3.197-1.701,3.144-2.714
			c-0.144-2.75-0.553-10.561-0.553-10.561l4.967-1.35L366.746,206.058z"/>
		<path style="fill:#407BFF;" d="M237.458,214.883l-9.848,2.676l0.745,14.219c-0.635-0.049-1.374,0.022-2.161,0.236
			c-2.257,0.613-4.032,2.146-3.965,3.423c0.067,1.277,1.951,1.815,4.208,1.202c2.257-0.613,4.032-2.146,3.965-3.423
			c-0.182-3.468-0.698-13.318-0.698-13.318l6.264-1.702L237.458,214.883z"/>
		<path style="opacity:0.2;fill:#FFFFFF;" d="M237.458,214.883l-9.848,2.676l0.745,14.219c-0.635-0.049-1.374,0.022-2.161,0.236
			c-2.257,0.613-4.032,2.146-3.965,3.423c0.067,1.277,1.951,1.815,4.208,1.202c2.257-0.613,4.032-2.146,3.965-3.423
			c-0.182-3.468-0.698-13.318-0.698-13.318l6.264-1.702L237.458,214.883z"/>
		<g>
			<path style="fill:#407BFF;" d="M318.404,224.336l1.205,22.986c-1.027-0.079-2.222,0.036-3.494,0.382
				c-3.648,0.992-6.518,3.469-6.41,5.533c0.108,2.064,3.153,2.934,6.802,1.943c3.648-0.992,6.518-3.469,6.41-5.533
				c-0.294-5.607-1.128-21.53-1.128-21.53l16.317-4.434l0.962,18.352c-1.027-0.079-2.222,0.036-3.494,0.382
				c-3.648,0.992-6.518,3.469-6.41,5.533c0.108,2.064,3.153,2.934,6.802,1.943c3.648-0.992,6.518-3.469,6.41-5.533
				c-0.294-5.607-1.371-26.164-1.371-26.164L318.404,224.336z"/>
		</g>
		<g>
			<path style="fill:#407BFF;" d="M323.425,169.998l0.6,11.449c-0.511-0.039-1.107,0.018-1.74,0.19
				c-1.817,0.494-3.246,1.728-3.192,2.756c0.054,1.028,1.57,1.461,3.388,0.967c1.817-0.494,3.247-1.728,3.193-2.756
				c-0.146-2.793-0.562-10.723-0.562-10.723l8.127-2.209l0.479,9.14c-0.511-0.039-1.107,0.018-1.74,0.19
				c-1.817,0.494-3.246,1.728-3.193,2.756c0.054,1.028,1.571,1.461,3.388,0.967c1.817-0.494,3.247-1.728,3.193-2.756
				c-0.146-2.793-0.683-13.032-0.683-13.032L323.425,169.998z"/>
			<path style="opacity:0.2;" d="M323.425,169.998l0.6,11.449c-0.511-0.039-1.107,0.018-1.74,0.19
				c-1.817,0.494-3.246,1.728-3.192,2.756c0.054,1.028,1.57,1.461,3.388,0.967c1.817-0.494,3.247-1.728,3.193-2.756
				c-0.146-2.793-0.562-10.723-0.562-10.723l8.127-2.209l0.479,9.14c-0.511-0.039-1.107,0.018-1.74,0.19
				c-1.817,0.494-3.246,1.728-3.193,2.756c0.054,1.028,1.571,1.461,3.388,0.967c1.817-0.494,3.247-1.728,3.193-2.756
				c-0.146-2.793-0.683-13.032-0.683-13.032L323.425,169.998z"/>
		</g>
		<g>
			<path style="fill:#407BFF;" d="M345.209,274.172c1.336,6.936-8.201,14.603-21.301,17.126c-13.1,2.523-24.802-1.055-26.137-7.991
				c-1.335-6.936,8.201-14.603,21.301-17.126C332.171,263.658,343.874,267.236,345.209,274.172z"/>
			<g>
				<path style="fill:#FFFFFF;" d="M330.283,288.471l-8.793-9.732l-4.55,12.301c2.174-0.047,4.452-0.281,6.778-0.729
					C326.045,289.863,328.247,289.234,330.283,288.471z"/>
			</g>
			<g>
				<path style="fill:#FFFFFF;" d="M326.04,266.438c-2.174,0.047-4.452,0.281-6.778,0.729c-2.327,0.448-4.528,1.077-6.564,1.84
					l8.792,9.732L326.04,266.438z"/>
			</g>
			<g>
				<path style="fill:#263238;" d="M313.476,290.951l8.014-12.212l-18.411,9.034c1.211,0.847,2.719,1.571,4.532,2.125
					C309.424,290.452,311.406,290.795,313.476,290.951z"/>
			</g>
			<g>
				<path style="fill:#263238;" d="M339.901,269.705c-1.21-0.847-2.719-1.571-4.531-2.125c-1.813-0.554-3.795-0.897-5.865-1.053
					l-8.015,12.212L339.901,269.705z"/>
			</g>
			<g>
				<path style="fill:#407BFF;" d="M328.809,277.33c0.412,2.14-2.531,4.506-6.573,5.285c-4.042,0.778-7.654-0.326-8.065-2.466
					c-0.412-2.14,2.531-4.506,6.573-5.285C324.786,274.085,328.397,275.189,328.809,277.33z"/>
				<path style="opacity:0.3;" d="M328.809,277.33c0.412,2.14-2.531,4.506-6.573,5.285c-4.042,0.778-7.654-0.326-8.065-2.466
					c-0.412-2.14,2.531-4.506,6.573-5.285C324.786,274.085,328.397,275.189,328.809,277.33z"/>
			</g>
			<path style="fill:#FFFFFF;" d="M322.887,278.47c0.079,0.409-0.483,0.86-1.255,1.009c-0.772,0.148-1.461-0.062-1.54-0.471
				c-0.079-0.409,0.483-0.86,1.255-1.009C322.119,277.851,322.809,278.061,322.887,278.47z"/>
		</g>
		<g>
			<path style="fill:#407BFF;" d="M384.082,250.031c-1.234,3.9-8.206,5.172-15.572,2.841c-7.366-2.331-12.337-7.382-11.103-11.282
				c1.234-3.9,8.206-5.172,15.572-2.841C380.345,241.08,385.316,246.131,384.082,250.031z"/>
			<g>
				<path style="fill:#FFFFFF;" d="M372.536,253.192l-1.791-7.382l-5.711,5.007c1.12,0.576,2.344,1.086,3.652,1.5
					C369.994,252.732,371.288,253.019,372.536,253.192z"/>
			</g>
			<g>
				<path style="fill:#FFFFFF;" d="M376.456,240.803c-1.12-0.576-2.344-1.086-3.652-1.499c-1.308-0.414-2.603-0.701-3.85-0.875
					l1.791,7.382L376.456,240.803z"/>
			</g>
			<g>
				<path style="fill:#263238;" d="M363.294,249.816l7.451-4.006l-11.867-0.482c0.383,0.765,0.951,1.55,1.721,2.333
					C361.368,248.444,362.283,249.166,363.294,249.816z"/>
			</g>
			<g>
				<path style="fill:#263238;" d="M382.612,246.292c-0.383-0.765-0.951-1.55-1.721-2.333c-0.77-0.783-1.685-1.504-2.695-2.155
					l-7.451,4.006L382.612,246.292z"/>
			</g>
			<g>
				<path style="fill:#407BFF;" d="M374.86,247.113c-0.381,1.204-2.532,1.596-4.805,0.877c-2.273-0.719-3.807-2.278-3.426-3.481
					c0.381-1.203,2.532-1.596,4.805-0.877C373.707,244.351,375.241,245.91,374.86,247.113z"/>
				<path style="opacity:0.3;" d="M374.86,247.113c-0.381,1.204-2.532,1.596-4.805,0.877c-2.273-0.719-3.807-2.278-3.426-3.481
					c0.381-1.203,2.532-1.596,4.805-0.877C373.707,244.351,375.241,245.91,374.86,247.113z"/>
			</g>
			<path style="fill:#FFFFFF;" d="M371.53,246.059c-0.073,0.23-0.483,0.305-0.917,0.167c-0.434-0.137-0.727-0.435-0.654-0.664
				c0.073-0.23,0.483-0.305,0.917-0.167S371.603,245.829,371.53,246.059z"/>
		</g>
	</g>
</g>
</svg>
